<?xml version="1.0" encoding="utf-8"?>
<!-- Generator: Adobe Illustrator 25.0.0, SVG Export Plug-In . SVG Version: 6.00 Build 0)  -->
<svg version="1.1" id="Calque_1" xmlns="http://www.w3.org/2000/svg" xmlns:xlink="http://www.w3.org/1999/xlink" x="0px" y="0px"
	 viewBox="0 0 188.6 97.5" style="enable-background:new 0 0 188.6 97.5;" xml:space="preserve">
<style type="text/css">
	.st0{fill:#FFFFFF;}
</style>
<g>
	<g>
		<path class="st0" d="M12.5,22.9c0,0.5-0.1,1-0.3,1.4c-0.2,0.4-0.5,0.8-0.8,1.2c-0.7,0.7-1.6,1.1-2.6,1.1H8.2c-0.5,0-1-0.1-1.4-0.3
			c-0.9-0.4-1.6-1.1-2-2c-0.2-0.5-0.3-0.9-0.3-1.4v-2.5l-4.2,0.7v1.8c0,1,0.2,2.1,0.6,3c0.8,1.9,2.3,3.3,4.1,4.1c1,0.4,2,0.6,3,0.6
			h0.8c1,0,2.1-0.2,3-0.6c1.9-0.8,3.3-2.3,4.1-4.1c0.4-1,0.6-2,0.6-3V0.4h-4.2V22.9z"/>
		<path class="st0" d="M34,30.7c1,0,2.1-0.2,3-0.6c0.9-0.4,1.8-1,2.5-1.7c0.7-0.7,1.3-1.5,1.7-2.5c0.4-1,0.6-2,0.6-3V7.8
			c0-1-0.2-2.1-0.6-3c-0.4-0.9-1-1.8-1.7-2.5C38.8,1.6,38,1,37.1,0.6c-1-0.4-2-0.6-3-0.6h-2c-1,0-2.1,0.2-3,0.6
			c-1.9,0.8-3.4,2.3-4.1,4.1c-0.4,1-0.6,2-0.6,3v15.1c0,1,0.2,2.1,0.6,3c0.8,1.9,2.3,3.3,4.1,4.1c1,0.4,2,0.6,3,0.6H34z M30.7,26.3
			c-0.4-0.2-0.8-0.5-1.2-0.8c-0.3-0.3-0.6-0.7-0.8-1.2c-0.2-0.5-0.3-0.9-0.3-1.4V7.8c0-0.5,0.1-1,0.3-1.4c0.2-0.4,0.4-0.8,0.8-1.2
			c0.3-0.3,0.7-0.6,1.2-0.8c0.5-0.2,0.9-0.3,1.4-0.3h1.8c0.5,0,1,0.1,1.4,0.3c0.4,0.2,0.8,0.5,1.2,0.8c0.3,0.3,0.6,0.7,0.8,1.2
			c0.2,0.5,0.3,0.9,0.3,1.4v15.1c0,0.5-0.1,1-0.3,1.4c-0.2,0.4-0.5,0.8-0.8,1.2c-0.3,0.3-0.7,0.6-1.2,0.8c-0.4,0.2-0.9,0.3-1.4,0.3
			h-1.8C31.7,26.6,31.2,26.5,30.7,26.3z"/>
		<polygon class="st0" points="54.4,11.6 65.1,30.2 65.2,31 65.2,30.3 67.8,30.3 67.8,0.4 63.5,0.4 63.5,19.1 52.9,0.4 50.2,0.4 
			50.2,30.3 54.4,30.3 		"/>
		<path class="st0" d="M82.2,0.4l-8.8,29.9h4.4l1.8-6.6h7.7l1.9,6.6h4.4L84.8,0.4H82.2z M86.2,19.6h-5.3l2.7-9.4L86.2,19.6z"/>
		<polygon class="st0" points="102.4,30.3 106.6,30.3 106.6,4.5 113.3,4.5 113.3,0.4 95.7,0.4 95.7,4.5 102.4,4.5 		"/>
		<polygon class="st0" points="123.9,17.4 133.1,17.4 133.1,30.3 137.3,30.3 137.3,0.4 133.1,0.4 133.1,13.3 123.9,13.3 123.9,0.4 
			119.7,0.4 119.7,30.3 123.9,30.3 		"/>
		<path class="st0" d="M151.7,0.4L143,30.3h4.4l1.9-6.6h7.7l1.9,6.6h4.4l-8.8-29.9L151.7,0.4z M155.7,19.6h-5.4l2.7-9.4L155.7,19.6z
			"/>
		<polygon class="st0" points="173,11.6 183.7,30.2 183.8,31 183.8,30.3 186.3,30.3 186.3,0.4 182.1,0.4 182.1,19.1 171.4,0.4 
			168.8,0.4 168.8,30.3 173,30.3 		"/>
		<polygon class="st0" points="35,37.3 30.8,37.3 30.8,67.2 45.8,67.2 45.8,63.1 35,63.1 		"/>
		<path class="st0" d="M57.8,37.3L49,67.2h4.4l1.9-6.6h7.7l1.9,6.6h4.4l-8.8-29.9H57.8z M61.8,56.5h-5.3l2.7-9.4L61.8,56.5z"/>
		<polygon class="st0" points="74.9,67.2 79.1,67.2 79.1,54.3 89.9,54.3 89.9,50.2 79.1,50.2 79.1,41.4 92.4,41.4 92.4,37.3 
			74.9,37.3 		"/>
		<polygon class="st0" points="102.6,37.3 98.4,37.3 98.4,67.2 113.4,67.2 113.4,63.1 102.6,63.1 		"/>
		<polygon class="st0" points="119.8,67.2 137.3,67.2 137.3,63.1 124,63.1 124,54.3 134.8,54.3 134.8,50.2 124,50.2 124,41.4 
			137.3,41.4 137.3,37.3 119.8,37.3 		"/>
		<path class="st0" d="M157.5,59.8c0,0.5-0.1,1-0.3,1.4c-0.2,0.4-0.5,0.8-0.8,1.2c-0.3,0.3-0.7,0.6-1.2,0.8
			c-0.5,0.2-0.9,0.3-1.4,0.3H152c-0.5,0-1-0.1-1.4-0.3c-0.4-0.2-0.8-0.5-1.2-0.8c-0.3-0.3-0.6-0.7-0.8-1.2c-0.2-0.5-0.3-0.9-0.3-1.4
			V37.3h-4.2v22.5c0,1,0.2,2.1,0.6,3c0.4,0.9,1,1.8,1.7,2.5c0.7,0.7,1.6,1.3,2.5,1.7c1,0.4,2,0.6,3,0.6h2c1,0,2.1-0.2,3-0.6
			c1.9-0.8,3.3-2.3,4.1-4.1c0.4-1,0.6-2,0.6-3V37.3h-4.2L157.5,59.8z"/>
		<path class="st0" d="M180.9,55c0.5-0.1,1.1-0.3,1.6-0.5c0.9-0.4,1.8-1,2.5-1.7c1.5-1.5,2.3-3.4,2.3-5.5v-2.3c0-2.1-0.8-4-2.3-5.5
			c-0.7-0.7-1.5-1.3-2.5-1.7c-1-0.4-2-0.6-3-0.6h-9.8v29.9h4.2v-12h2.2l7.7,12h4.9L180.9,55z M173.9,41.4h5.5c0.5,0,1,0.1,1.4,0.3
			c0.4,0.2,0.8,0.5,1.2,0.8c0.3,0.3,0.6,0.7,0.8,1.2c0.2,0.5,0.3,0.9,0.3,1.4v2.3c0,0.5-0.1,1-0.3,1.4c-0.2,0.4-0.5,0.8-0.8,1.2
			c-0.3,0.3-0.7,0.6-1.2,0.8c-0.5,0.2-0.9,0.3-1.4,0.3h-5.5V41.4z"/>
	</g>
	<polygon class="st0" points="24.4,37.2 24.5,37.2 20.5,37.2 20.3,37.2 17.4,41.7 0,67.1 3.3,67.1 3.9,67.1 4.1,67.1 7,62.6 	"/>
</g>
<g>
	<path class="st0" d="M9.2,92.7l-0.8-1.2c-0.3,0.4-0.7,0.8-1.2,1.1c-0.5,0.3-1.1,0.4-1.6,0.4H5.2c-0.5,0-0.9-0.1-1.4-0.3
		c-0.8-0.4-1.5-1-1.9-1.9c-0.2-0.4-0.3-0.9-0.3-1.4V84c0-0.5,0.1-0.9,0.3-1.4c0.4-0.8,1-1.5,1.9-1.9c0.4-0.2,0.9-0.3,1.4-0.3h0.4
		c1,0,2,0.4,2.7,1.2v-5.8h1.4v16.8L9.2,92.7z M8.3,83.9c0-0.3-0.1-0.6-0.2-0.8C7.9,82.6,7.5,82.2,7,82c-0.3-0.1-0.5-0.2-0.8-0.2h-1
		c-0.3,0-0.6,0.1-0.8,0.2c-0.5,0.2-0.9,0.6-1.1,1.1c-0.1,0.3-0.2,0.5-0.2,0.8v5.6c0,0.3,0.1,0.6,0.2,0.8c0.2,0.5,0.6,0.9,1.1,1.1
		c0.3,0.1,0.5,0.2,0.8,0.2h1c0.3,0,0.6-0.1,0.8-0.2c0.5-0.2,0.9-0.6,1.1-1.1c0.1-0.3,0.2-0.5,0.2-0.8V83.9z"/>
	<path class="st0" d="M23,90.8c-0.4,0.8-1,1.5-1.9,1.9c-0.4,0.2-0.9,0.3-1.4,0.3h-1c-0.5,0-0.9-0.1-1.4-0.3c-0.8-0.4-1.5-1-1.9-1.9
		c-0.2-0.4-0.3-0.9-0.3-1.4V84c0-0.5,0.1-0.9,0.3-1.4c0.4-0.8,1-1.5,1.9-1.9c0.4-0.2,0.9-0.3,1.4-0.3h1c0.5,0,0.9,0.1,1.4,0.3
		c0.8,0.4,1.5,1,1.9,1.9c0.2,0.4,0.3,0.9,0.3,1.4v2.8h-6.6v2.7c0,0.3,0.1,0.6,0.2,0.8c0.2,0.5,0.6,0.9,1.1,1.1
		c0.3,0.1,0.5,0.2,0.8,0.2h1c0.3,0,0.6-0.1,0.8-0.2c0.5-0.2,0.9-0.6,1.1-1.1c0.1-0.3,0.2-0.5,0.2-0.8v-0.8l1.4,0.2v0.5
		C23.3,89.9,23.2,90.3,23,90.8z M21.8,83.9c0-0.3-0.1-0.6-0.2-0.8c-0.2-0.5-0.6-0.9-1.1-1.1c-0.3-0.1-0.5-0.2-0.8-0.2h-1
		c-0.3,0-0.6,0.1-0.8,0.2c-0.5,0.2-0.9,0.6-1.1,1.1c-0.1,0.3-0.2,0.5-0.2,0.8v1.8h5.1L21.8,83.9z M18.7,78.8h-1.1l1.9-2.9h2.4
		L18.7,78.8z"/>
	<path class="st0" d="M32.6,92.7h-0.7l-4.3-12H29l3.1,9.1l0,0.6l0-0.6l3.1-9.1h1.4L32.6,92.7z"/>
	<path class="st0" d="M48.9,90.8c-0.4,0.8-1,1.5-1.9,1.9c-0.4,0.2-0.9,0.3-1.4,0.3h-1c-0.5,0-0.9-0.1-1.4-0.3
		c-0.8-0.4-1.5-1-1.9-1.9c-0.2-0.4-0.3-0.9-0.3-1.4V84c0-0.5,0.1-0.9,0.3-1.4c0.4-0.8,1-1.5,1.9-1.9c0.4-0.2,0.9-0.3,1.4-0.3h1
		c0.5,0,0.9,0.1,1.4,0.3c0.8,0.4,1.5,1,1.9,1.9c0.2,0.4,0.3,0.9,0.3,1.4v2.8h-6.6v2.7c0,0.3,0.1,0.6,0.2,0.8
		c0.2,0.5,0.6,0.9,1.1,1.1c0.3,0.1,0.5,0.2,0.8,0.2h1c0.3,0,0.6-0.1,0.8-0.2c0.5-0.2,0.9-0.6,1.1-1.1c0.1-0.3,0.2-0.5,0.2-0.8v-0.8
		l1.4,0.2v0.5C49.2,89.9,49.1,90.3,48.9,90.8z M47.7,83.9c0-0.3-0.1-0.6-0.2-0.8c-0.2-0.5-0.6-0.9-1.1-1.1c-0.3-0.1-0.5-0.2-0.8-0.2
		h-1c-0.3,0-0.6,0.1-0.8,0.2c-0.5,0.2-0.9,0.6-1.1,1.1c-0.1,0.3-0.2,0.5-0.2,0.8v1.8h5.1L47.7,83.9z"/>
	<path class="st0" d="M55.2,92.7V75.9h1.4v16.8L55.2,92.7z"/>
	<path class="st0" d="M70.2,90.8c-0.4,0.8-1,1.5-1.9,1.9c-0.4,0.2-0.9,0.3-1.4,0.3h-1c-0.5,0-0.9-0.1-1.4-0.3
		c-0.8-0.4-1.5-1-1.9-1.9c-0.2-0.4-0.3-0.9-0.3-1.4V84c0-0.5,0.1-0.9,0.3-1.4c0.4-0.8,1-1.5,1.9-1.9c0.4-0.2,0.9-0.3,1.4-0.3h1
		c0.5,0,0.9,0.1,1.4,0.3c0.8,0.4,1.5,1,1.9,1.9c0.2,0.4,0.3,0.9,0.3,1.4v5.4C70.5,89.9,70.4,90.3,70.2,90.8z M69,83.9
		c0-0.3-0.1-0.6-0.2-0.8c-0.2-0.5-0.6-0.9-1.1-1.1c-0.3-0.1-0.5-0.2-0.8-0.2h-1c-0.3,0-0.6,0.1-0.8,0.2c-0.5,0.2-0.9,0.6-1.1,1.1
		c-0.1,0.3-0.2,0.5-0.2,0.8v5.6c0,0.3,0.1,0.6,0.2,0.8c0.2,0.5,0.6,0.9,1.1,1.1c0.3,0.1,0.5,0.2,0.8,0.2h1c0.3,0,0.6-0.1,0.8-0.2
		c0.5-0.2,0.9-0.6,1.1-1.1C69,90,69,89.8,69,89.5V83.9z"/>
	<path class="st0" d="M83.7,90.8c-0.4,0.8-1,1.5-1.9,1.9c-0.4,0.2-0.9,0.3-1.4,0.3h-0.4c-1,0-2-0.4-2.7-1.2v5.8H76V80.7h0.5l0.8,1.2
		c0.3-0.4,0.7-0.8,1.2-1.1c0.5-0.3,1.1-0.4,1.6-0.4h0.4c0.5,0,0.9,0.1,1.4,0.3c0.8,0.4,1.5,1,1.9,1.9c0.2,0.4,0.3,0.9,0.3,1.4v5.4
		C84,89.9,83.9,90.3,83.7,90.8z M82.6,83.9c0-0.3-0.1-0.6-0.2-0.8c-0.2-0.5-0.6-0.9-1.1-1.1c-0.3-0.1-0.5-0.2-0.8-0.2h-1
		c-0.3,0-0.6,0.1-0.8,0.2c-0.5,0.2-0.9,0.6-1.1,1.1c-0.1,0.3-0.2,0.5-0.2,0.8v5.6c0,0.3,0.1,0.6,0.2,0.8c0.2,0.5,0.6,0.9,1.1,1.1
		c0.3,0.1,0.5,0.2,0.8,0.2h1c0.3,0,0.6-0.1,0.8-0.2c0.5-0.2,0.9-0.6,1.1-1.1c0.1-0.3,0.2-0.5,0.2-0.8L82.6,83.9z"/>
	<path class="st0" d="M97.3,90.8c-0.4,0.8-1,1.5-1.9,1.9c-0.4,0.2-0.9,0.3-1.4,0.3h-0.4c-1,0-2-0.4-2.7-1.2v5.8h-1.4V80.7H90
		l0.8,1.2c0.3-0.4,0.7-0.8,1.2-1.1c0.5-0.3,1.1-0.4,1.6-0.4H94c0.5,0,0.9,0.1,1.4,0.3c0.8,0.4,1.5,1,1.9,1.9
		c0.2,0.4,0.3,0.9,0.3,1.4v5.4C97.6,89.9,97.5,90.3,97.3,90.8z M96.1,83.9c0-0.3-0.1-0.6-0.2-0.8c-0.2-0.5-0.6-0.9-1.1-1.1
		c-0.3-0.1-0.5-0.2-0.8-0.2h-1c-0.3,0-0.6,0.1-0.8,0.2c-0.5,0.2-0.9,0.6-1.1,1.1c-0.1,0.3-0.2,0.5-0.2,0.8v5.6
		c0,0.3,0.1,0.6,0.2,0.8c0.2,0.5,0.6,0.9,1.1,1.1c0.3,0.1,0.5,0.2,0.8,0.2h1c0.3,0,0.6-0.1,0.8-0.2c0.5-0.2,0.9-0.6,1.1-1.1
		c0.1-0.3,0.2-0.5,0.2-0.8V83.9z"/>
	<path class="st0" d="M110.9,90.8c-0.4,0.8-1,1.5-1.9,1.9c-0.4,0.2-0.9,0.3-1.4,0.3h-1c-0.5,0-0.9-0.1-1.4-0.3
		c-0.8-0.4-1.5-1-1.9-1.9c-0.2-0.4-0.3-0.9-0.3-1.4V84c0-0.5,0.1-0.9,0.3-1.4c0.4-0.8,1-1.5,1.9-1.9c0.4-0.2,0.9-0.3,1.4-0.3h1
		c0.5,0,0.9,0.1,1.4,0.3c0.8,0.4,1.5,1,1.9,1.9c0.2,0.4,0.3,0.9,0.3,1.4v2.8h-6.6v2.7c0,0.3,0.1,0.6,0.2,0.8
		c0.2,0.5,0.6,0.9,1.1,1.1c0.3,0.1,0.5,0.2,0.8,0.2h1c0.3,0,0.6-0.1,0.8-0.2c0.5-0.2,0.9-0.6,1.1-1.1c0.1-0.3,0.2-0.5,0.2-0.8v-0.8
		l1.4,0.2v0.5C111.1,89.9,111,90.3,110.9,90.8z M109.7,83.9c0-0.3-0.1-0.6-0.2-0.8c-0.2-0.5-0.6-0.9-1.1-1.1
		c-0.3-0.1-0.5-0.2-0.8-0.2h-1c-0.3,0-0.6,0.1-0.8,0.2c-0.5,0.2-0.9,0.6-1.1,1.1c-0.1,0.3-0.2,0.5-0.2,0.8v1.8h5.1L109.7,83.9z"/>
	<path class="st0" d="M124.2,92.7l-0.8-1.2c-0.3,0.4-0.7,0.8-1.2,1.1c-0.5,0.3-1.1,0.4-1.6,0.4h-0.4c-0.5,0-0.9-0.1-1.4-0.3
		c-0.8-0.4-1.5-1-1.9-1.9c-0.2-0.4-0.3-0.9-0.3-1.4v-8.7h1.4v8.8c0,0.3,0.1,0.6,0.2,0.8c0.2,0.5,0.6,0.9,1.1,1.1
		c0.3,0.1,0.5,0.2,0.8,0.2h1c0.3,0,0.6-0.1,0.8-0.2c0.5-0.2,0.9-0.6,1.1-1.1c0.1-0.3,0.2-0.5,0.2-0.8v-8.8h1.4v12H124.2z"/>
	<path class="st0" d="M133.8,82.1c-0.3,0-0.6,0.1-0.8,0.2c-0.5,0.2-0.9,0.6-1.1,1.1c-0.1,0.3-0.2,0.5-0.2,0.8v8.5h-1.4v-12h0.5
		l0.8,1.2c0.3-0.4,0.7-0.8,1.2-1.1c0.5-0.3,1.1-0.4,1.6-0.4h0.8v1.6L133.8,82.1z"/>
	<path class="st0" d="M158.1,92.7h-0.8l-2.8-9l0-0.6l0,0.6l-2.8,9h-0.8l-4-12h1.5l2.9,9.1l0,0.6l0-0.6l2.8-9.1h0.9l2.8,9.1l0,0.6
		l0-0.6l2.9-9.1h1.5L158.1,92.7z"/>
	<path class="st0" d="M174.2,90.8c-0.4,0.8-1,1.5-1.9,1.9c-0.4,0.2-0.9,0.3-1.4,0.3h-1c-0.5,0-0.9-0.1-1.4-0.3
		c-0.8-0.4-1.5-1-1.9-1.9c-0.2-0.4-0.3-0.9-0.3-1.4V84c0-0.5,0.1-0.9,0.3-1.4c0.4-0.8,1-1.5,1.9-1.9c0.4-0.2,0.9-0.3,1.4-0.3h1
		c0.5,0,0.9,0.1,1.4,0.3c0.8,0.4,1.5,1,1.9,1.9c0.2,0.4,0.3,0.9,0.3,1.4v2.8h-6.6v2.7c0,0.3,0.1,0.6,0.2,0.8
		c0.2,0.5,0.6,0.9,1.1,1.1c0.3,0.1,0.5,0.2,0.8,0.2h1c0.3,0,0.6-0.1,0.8-0.2c0.5-0.2,0.9-0.6,1.1-1.1c0.1-0.3,0.2-0.5,0.2-0.8v-0.8
		l1.4,0.2v0.5C174.5,89.9,174.4,90.3,174.2,90.8z M173,83.9c0-0.3-0.1-0.6-0.2-0.8c-0.2-0.5-0.6-0.9-1.1-1.1
		c-0.3-0.1-0.5-0.2-0.8-0.2h-1c-0.3,0-0.6,0.1-0.8,0.2c-0.5,0.2-0.9,0.6-1.1,1.1c-0.1,0.3-0.2,0.5-0.2,0.8v1.8h5.1V83.9z"/>
	<path class="st0" d="M187.8,90.8c-0.4,0.8-1,1.5-1.9,1.9c-0.4,0.2-0.9,0.3-1.4,0.3h-1c-0.5,0-0.9-0.1-1.4-0.3
		c-0.8-0.4-1.5-1-1.9-1.9c-0.2-0.4-0.3-0.9-0.3-1.4V75.9h1.4v5.8c0.7-0.8,1.6-1.3,2.7-1.2h0.4c0.5,0,0.9,0.1,1.4,0.3
		c0.8,0.4,1.5,1,1.9,1.9c0.2,0.4,0.3,0.9,0.3,1.4v5.4C188,89.9,187.9,90.3,187.8,90.8z M186.6,83.9c0-0.3-0.1-0.6-0.2-0.8
		c-0.2-0.5-0.6-0.9-1.1-1.1c-0.3-0.1-0.5-0.2-0.8-0.2h-1c-0.3,0-0.6,0.1-0.8,0.2c-0.5,0.2-0.9,0.6-1.1,1.1c-0.1,0.3-0.2,0.5-0.2,0.8
		v5.6c0,0.3,0.1,0.6,0.2,0.8c0.2,0.5,0.6,0.9,1.1,1.1c0.3,0.1,0.5,0.2,0.8,0.2h1c0.3,0,0.6-0.1,0.8-0.2c0.5-0.2,0.9-0.6,1.1-1.1
		c0.1-0.3,0.2-0.5,0.2-0.8V83.9z"/>
</g>
</svg>
