<?xml version="1.0" encoding="utf-8"?>
<!-- Generator: Adobe Illustrator 23.0.6, SVG Export Plug-In . SVG Version: 6.00 Build 0)  -->
<svg version="1.1" xmlns="http://www.w3.org/2000/svg" xmlns:xlink="http://www.w3.org/1999/xlink" x="0px" y="0px"
	 viewBox="0 0 1218.7 556.03" style="enable-background:new 0 0 1218.7 556.03;" xml:space="preserve">
<style type="text/css">
	.st0{clip-path:url(#SVGID_2_);}
	.st1{fill:#1D1D1B;}
	.st2{fill:url(#SVGID_3_);}
	.st3{fill:url(#SVGID_4_);}
	.st4{fill:url(#SVGID_5_);}
	.st5{display:none;}
	.st6{display:inline;}
	.st7{fill:#909090;}
</style>
<g id="Calque_1">
	<g>
		<defs>
			<rect id="SVGID_1_" x="-0.08" y="-0.39" width="1217.28" height="556.25"/>
		</defs>
		<clipPath id="SVGID_2_">
			<use xlink:href="#SVGID_1_"  style="overflow:visible;"/>
		</clipPath>
		<g class="st0">
			<g>
				<path class="st1" d="M1040.52,348.86c-4.24,0-7.77,2.98-8.63,6.96h-48.25l-30.05-36.59h-11.57l-3.52-3.52h-32.57l-9.01,9.16
					l9.01,9.16h32.57l9.16-9.16l-1.88-1.88h6.26l30.05,36.59h49.81c0.86,3.98,4.4,6.96,8.63,6.96c4.88,0,8.84-3.96,8.84-8.84
					S1045.4,348.86,1040.52,348.86z"/>
				<path class="st1" d="M1088.29,317.18c-4.23,0-7.77,2.99-8.63,6.96h-71.24v-33.58h-92.78c-2.38,1.36-4.87,2.61-7.46,3.76h96.49
					v33.58h74.99c0.86,3.98,4.4,6.96,8.63,6.96c4.88,0,8.84-3.96,8.84-8.84C1097.13,321.14,1093.17,317.18,1088.29,317.18z"/>
				<path class="st1" d="M1028.5,250.73c1.38,0.88,3.02,1.4,4.78,1.4c4.88,0,8.84-3.95,8.84-8.83c0-4.89-3.96-8.84-8.84-8.84
					s-8.84,3.95-8.84,8.84c0,1.76,0.52,3.39,1.41,4.77l-29.69,29.69h-63.64c-1.29,1.3-2.64,2.55-4.04,3.76h69.23L1028.5,250.73z"/>
				<path class="st1" d="M153.35,252.7c4.24,0,7.78-2.98,8.64-6.96h48.25l30.05,30.05h18.94v-3.76h-17.38l-30.05-30.05h-49.81
					c-0.86-3.98-4.4-6.96-8.64-6.96c-4.88,0-8.83,3.96-8.83,8.84S148.47,252.7,153.35,252.7z"/>
				<path class="st1" d="M208.7,300.88h50.53v-3.76h-46.77v-33.58h-75c-0.86-3.98-4.4-6.96-8.63-6.96c-4.88,0-8.84,3.96-8.84,8.84
					s3.96,8.84,8.84,8.84c4.23,0,7.77-2.99,8.63-6.96h71.24V300.88z"/>
				<polygon class="st1" points="312.06,385.95 312.06,426.63 321.37,435.78 330.37,426.63 330.37,385.95 321.22,376.8 				"/>
				<path class="st1" d="M311.01,315.71h-32.57l-3.43,3.49h-55.6l-30.79,30.79c-1.38-0.89-3.01-1.41-4.77-1.41
					c-4.88,0-8.84,3.96-8.84,8.84s3.96,8.84,8.84,8.84s8.84-3.96,8.84-8.84c0-1.76-0.52-3.4-1.41-4.77l29.69-29.69h50.35l-1.88,1.91
					l9.01,9.16h32.57l9.16-9.16L311.01,315.71z"/>
				<polygon class="st1" points="365.05,385.95 365.05,426.63 374.35,435.78 383.36,426.63 383.36,376.5 374.5,376.5 				"/>
				<polygon class="st1" points="363.99,315.71 331.43,315.71 322.42,324.87 331.43,334.02 363.99,334.02 373.15,324.87 				"/>
				<polygon class="st1" points="312.06,335.07 312.21,365.54 321.22,374.69 330.37,365.54 330.37,335.07 321.22,325.92 				"/>
				<polygon class="st1" points="365.05,335.07 365.05,365.54 374.65,374.99 383.36,374.99 383.36,335.07 374.2,325.92 				"/>
				<polygon class="st1" points="259.23,335.07 259.38,374.99 267.94,374.99 277.39,365.54 277.39,335.07 268.39,325.92 				"/>
				<polygon class="st1" points="259.23,376.5 259.23,426.63 268.39,435.78 277.39,426.63 277.39,385.95 267.94,376.5 				"/>
				<polygon class="st1" points="455.39,376.5 445.93,385.95 445.93,426.63 455.09,435.78 464.24,426.63 464.09,376.5 				"/>
				<polygon class="st1" points="392.5,376.5 392.5,426.63 401.66,435.78 410.66,426.63 410.66,385.95 401.21,376.5 				"/>
				<polygon class="st1" points="444.58,366.59 412.01,366.59 402.71,375.75 412.01,384.9 444.58,384.9 453.74,375.75 				"/>
				<polygon class="st1" points="401.51,374.99 410.96,365.54 410.81,335.07 401.81,325.92 392.5,335.22 392.65,374.99 				"/>
				<polygon class="st1" points="444.58,334.02 453.74,324.87 444.58,315.71 412.16,315.71 403.01,324.87 412.16,334.02 				"/>
				<polygon class="st1" points="454.94,325.92 445.63,335.07 445.78,365.54 455.24,374.99 464.24,374.99 464.09,335.22 				"/>
				<polygon class="st1" points="510.62,386.4 493.06,386.4 493.21,393.31 526.83,435.78 544.84,435.78 544.69,429.33 				"/>
				<polygon class="st1" points="534.48,375.75 525.32,366.59 492.76,366.59 483.45,375.75 492.76,384.9 525.32,384.9 				"/>
				<polygon class="st1" points="473.24,376.5 473.24,426.63 482.4,435.78 491.4,426.63 491.4,385.95 481.95,376.5 				"/>
				<polygon class="st1" points="525.32,334.02 534.48,324.87 525.32,315.71 474.59,315.71 492.61,334.02 				"/>
				<polygon class="st1" points="482.25,374.99 491.7,365.54 491.55,335.07 473.39,316.76 473.54,374.99 				"/>
				<polygon class="st1" points="535.68,325.92 526.38,335.07 526.53,365.54 535.53,374.69 544.84,365.54 544.69,335.07 				"/>
				<polygon class="st1" points="597.21,374.99 622.73,334.02 622.73,315.71 613.72,315.71 581.75,367.04 589.71,374.99 				"/>
				<polygon class="st1" points="572,365.54 572,324.87 562.84,315.71 553.98,324.87 553.98,374.99 562.54,374.99 				"/>
				<polygon class="st1" points="597.21,376.5 589.56,376.5 581.6,384.45 613.87,435.78 622.88,435.78 622.73,417.47 				"/>
				<polygon class="st1" points="553.83,376.5 553.83,426.63 562.99,435.78 572,426.63 572,385.95 562.54,376.5 				"/>
				<polygon class="st1" points="579.05,366.59 572.9,366.59 563.74,375.75 572.9,384.9 579.05,384.9 588.06,375.75 				"/>
				<polygon class="st1" points="640.58,374.99 650.04,365.54 650.04,335.07 641.03,325.92 631.88,335.07 632.03,374.99 				"/>
				<polygon class="st1" points="650.94,384.9 674.95,384.9 684.11,375.75 674.95,366.59 650.94,366.59 641.78,375.75 				"/>
				<polygon class="st1" points="651.09,417.47 642.08,426.63 651.24,435.78 683.66,435.78 692.81,426.63 683.51,417.47 				"/>
				<polygon class="st1" points="651.09,315.71 642.08,324.87 651.09,334.02 683.66,334.02 692.81,324.87 683.66,315.71 				"/>
				<polygon class="st1" points="650.04,385.95 640.58,376.5 631.88,376.5 631.88,416.42 640.88,425.57 650.04,416.42 				"/>
				<polygon class="st1" points="726.58,335.07 726.58,365.54 735.73,374.69 744.89,365.54 744.89,335.07 735.73,325.92 				"/>
				<polygon class="st1" points="726.58,385.95 726.58,426.63 735.73,435.78 744.89,426.63 744.89,385.95 735.73,376.8 				"/>
				<polygon class="st1" points="710.82,315.71 701.96,324.87 710.82,334.02 725.68,334.02 735.88,323.81 745.94,334.02 
					760.8,334.02 769.95,324.87 760.8,315.71 				"/>
				<polygon class="st1" points="779.25,324.87 779.25,365.54 788.11,374.69 797.26,365.54 797.26,324.87 788.11,315.71 				"/>
				<polygon class="st1" points="779.1,385.95 779.1,426.63 788.26,435.78 797.26,426.63 797.26,385.95 788.11,376.8 				"/>
				<polygon class="st1" points="859.25,385.95 859.25,426.63 868.55,435.78 877.56,426.63 877.56,376.5 868.7,376.5 				"/>
				<polygon class="st1" points="830.28,321.56 826.08,321.56 826.08,344.23 847.54,365.69 857.75,365.69 857.6,349.18 				"/>
				<polygon class="st1" points="806.42,376.5 806.42,426.63 815.57,435.78 824.58,426.63 824.58,385.95 815.12,376.5 				"/>
				<polygon class="st1" points="806.57,324.87 806.57,374.99 815.12,374.99 824.58,365.54 824.58,324.87 815.42,315.71 				"/>
				<polygon class="st1" points="859.4,324.87 859.4,365.54 868.85,374.99 877.56,374.99 877.56,324.87 868.4,315.71 				"/>
				<polygon class="st1" points="895.41,374.99 904.87,365.54 904.87,335.07 895.86,325.92 886.71,335.07 886.86,374.99 				"/>
				<polygon class="st1" points="939.54,416.42 948.69,425.57 957.85,416.42 957.85,367.64 939.54,385.95 				"/>
				<polygon class="st1" points="956.8,366.59 932.48,366.59 923.18,375.75 932.33,384.9 938.49,384.9 				"/>
				<polygon class="st1" points="904.87,385.95 895.41,376.5 886.71,376.5 886.71,416.42 895.71,425.57 904.87,416.42 				"/>
				<polygon class="st1" points="905.92,417.47 896.91,426.63 906.07,435.78 938.49,435.78 947.64,426.63 938.34,417.47 				"/>
			</g>
			<g>
				<linearGradient id="SVGID_3_" gradientUnits="userSpaceOnUse" x1="873.9961" y1="180.07" x2="433.5595" y2="206.2262">
					<stop  offset="0" style="stop-color:#841A39"/>
					<stop  offset="1" style="stop-color:#C1272D"/>
				</linearGradient>
				<path class="st2" d="M431.52,119.68v183.57h-44.05l-76.58-98.87l0.79,40.13v58.74h-52.45V119.68h44.06l77.62,100.44
					c-1.31-22.03-1.31-30.42-1.57-37.5v-62.94H431.52z"/>
				<linearGradient id="SVGID_4_" gradientUnits="userSpaceOnUse" x1="864.4939" y1="177.9978" x2="334.62" y2="248.8726">
					<stop  offset="0" style="stop-color:#841A39"/>
					<stop  offset="1" style="stop-color:#C1272D"/>
				</linearGradient>
				<path class="st3" d="M769.3,182.88c0-33.04-24.39-63.2-71.33-63.2h-89.69v139.78H501.54v-25.36h86.8v-42.22h-86.8v-28.66h92.05
					v-43.53H450.41v183.57h157.87h0.73h51.2v-59.53h18.09l42.75,59.53h57.17v-3.15l-47.73-61.89
					C761.43,224.57,769.3,205.43,769.3,182.88z M698.49,205.17H660.2v-44.06h37.76c13.64,0,20.19,11.28,20.19,22.82
					C718.16,194.94,712.13,205.17,698.49,205.17z"/>
				<linearGradient id="SVGID_5_" gradientUnits="userSpaceOnUse" x1="875.6807" y1="208.4364" x2="435.2441" y2="234.5926">
					<stop  offset="0" style="stop-color:#841A39"/>
					<stop  offset="1" style="stop-color:#C1272D"/>
				</linearGradient>
				<path class="st4" d="M861.86,119.68h-78.67v183.57h78.67c18.1,0,33.5-3.21,46.32-8.93c2.59-1.15,5.08-2.4,7.46-3.76
					c4.68-2.65,8.96-5.68,12.84-9.04c1.4-1.21,2.75-2.46,4.04-3.76c17.15-17.09,25.33-41.24,25.33-67.61
					C957.85,159.54,926.64,119.68,861.86,119.68z M861.86,259.45h-27.27v-96.5h27.27c31.74,0,44.59,21.5,44.59,46.68
					C906.45,234.8,894.91,259.45,861.86,259.45z"/>
			</g>
		</g>
	</g>
</g>
<g id="reperes" class="st5">
	<g class="st6">
		<polygon class="st7" points="388.45,58.89 397.9,49.44 397.9,18.97 388.9,9.81 379.74,18.97 379.89,58.89 		"/>
		<polygon class="st7" points="398.8,68.8 422.82,68.8 431.97,59.64 422.82,50.49 398.8,50.49 389.65,59.64 		"/>
		<polygon class="st7" points="398.95,101.37 389.95,110.52 399.1,119.68 431.52,119.68 440.68,110.52 431.37,101.37 		"/>
		<polygon class="st7" points="398.95,-0.39 389.95,8.76 398.95,17.92 431.52,17.92 440.68,8.76 431.52,-0.39 		"/>
		<polygon class="st7" points="397.9,69.85 388.45,60.39 379.74,60.39 379.74,100.32 388.75,109.47 397.9,100.32 		"/>
	</g>
	<g class="st6">
		<polygon class="st7" points="412.01,495.07 421.47,485.61 421.47,455.14 412.46,445.99 403.31,455.14 403.46,495.07 		"/>
		<polygon class="st7" points="422.37,504.97 446.38,504.97 455.54,495.82 446.38,486.66 422.37,486.66 413.21,495.82 		"/>
		<polygon class="st7" points="422.52,537.54 413.51,546.7 422.67,555.85 455.09,555.85 464.24,546.7 454.94,537.54 		"/>
		<polygon class="st7" points="422.52,435.78 413.51,444.94 422.52,454.09 455.09,454.09 464.24,444.94 455.09,435.78 		"/>
		<polygon class="st7" points="421.47,506.02 412.01,496.57 403.31,496.57 403.31,536.49 412.31,545.65 421.47,536.49 		"/>
	</g>
	<g class="st6">
		<polygon class="st7" points="59.21,308.49 49.75,299.04 19.28,299.04 10.13,308.04 19.28,317.2 59.21,317.05 		"/>
		<polygon class="st7" points="69.11,298.14 69.11,274.12 59.96,264.97 50.8,274.12 50.8,298.14 59.96,307.29 		"/>
		<polygon class="st7" points="101.68,297.99 110.84,306.99 119.99,297.84 119.99,265.42 110.84,256.26 101.68,265.57 		"/>
		<polygon class="st7" points="-0.08,297.99 9.08,306.99 18.23,297.99 18.23,265.42 9.08,256.26 -0.08,265.42 		"/>
		<polygon class="st7" points="70.16,299.04 60.71,308.49 60.71,317.2 100.63,317.2 109.79,308.19 100.63,299.04 		"/>
	</g>
	<g class="st6">
		<polygon class="st7" points="1156.42,308.49 1146.96,299.04 1116.5,299.04 1107.34,308.04 1116.5,317.2 1156.42,317.05 		"/>
		<polygon class="st7" points="1166.32,298.14 1166.32,274.12 1157.17,264.97 1148.01,274.12 1148.01,298.14 1157.17,307.29 		"/>
		<polygon class="st7" points="1198.89,297.99 1208.05,306.99 1217.21,297.84 1217.21,265.42 1208.05,256.26 1198.89,265.57 		"/>
		<polygon class="st7" points="1097.13,297.99 1106.29,306.99 1115.44,297.99 1115.44,265.42 1106.29,256.26 1097.13,265.42 		"/>
		<polygon class="st7" points="1167.38,299.04 1157.92,308.49 1157.92,317.2 1197.84,317.2 1207,308.19 1197.84,299.04 		"/>
	</g>
</g>
</svg>
