<?xml version="1.0" encoding="utf-8"?>
<!-- Generator: Adobe Illustrator 24.3.0, SVG Export Plug-In . SVG Version: 6.00 Build 0)  -->
<svg version="1.1" id="Calque_1" xmlns="http://www.w3.org/2000/svg" xmlns:xlink="http://www.w3.org/1999/xlink" x="0px" y="0px"
	 viewBox="0 0 94.5 48.8" style="enable-background:new 0 0 94.5 48.8;" xml:space="preserve">
<style type="text/css">
	.st0{fill:#FFFFFF;}
</style>
<g>
	<g>
		<path class="st0" d="M6.2,11.5c0,0.3,0,0.5-0.1,0.7c-0.1,0.2-0.2,0.4-0.4,0.6c-0.2,0.2-0.4,0.3-0.6,0.4c-0.2,0.1-0.5,0.1-0.7,0.1
			H4.1c-0.3,0-0.5,0-0.7-0.1c-0.2-0.1-0.4-0.2-0.6-0.4c-0.2-0.2-0.3-0.4-0.4-0.6c-0.1-0.2-0.1-0.5-0.1-0.7v-1.3l-2.1,0.3v0.9
			c0,0.5,0.1,1,0.3,1.5c0.2,0.5,0.5,0.9,0.8,1.2c0.4,0.4,0.8,0.6,1.2,0.8c0.5,0.2,1,0.3,1.5,0.3h0.4c0.5,0,1-0.1,1.5-0.3
			c0.5-0.2,0.9-0.5,1.2-0.8C7.6,13.9,7.8,13.5,8,13c0.2-0.5,0.3-1,0.3-1.5V0.2H6.2V11.5z"/>
		<path class="st0" d="M17,15.4c0.5,0,1-0.1,1.5-0.3c0.5-0.2,0.9-0.5,1.2-0.8c0.4-0.4,0.6-0.8,0.8-1.2c0.2-0.5,0.3-1,0.3-1.5V3.9
			c0-0.5-0.1-1-0.3-1.5c-0.2-0.5-0.5-0.9-0.8-1.2c-0.4-0.4-0.8-0.6-1.2-0.8C18.1,0.1,17.6,0,17,0h-1c-0.5,0-1,0.1-1.5,0.3
			c-0.5,0.2-0.9,0.5-1.2,0.8c-0.3,0.4-0.6,0.8-0.8,1.2c-0.2,0.5-0.3,1-0.3,1.5v7.6c0,0.5,0.1,1,0.3,1.5c0.2,0.5,0.5,0.9,0.8,1.2
			c0.4,0.4,0.8,0.6,1.2,0.8c0.5,0.2,1,0.3,1.5,0.3H17z M15.4,13.2c-0.2-0.1-0.4-0.2-0.6-0.4c-0.2-0.2-0.3-0.4-0.4-0.6
			c-0.1-0.2-0.1-0.5-0.1-0.7V3.9c0-0.3,0-0.5,0.1-0.7c0.1-0.2,0.2-0.4,0.4-0.6c0.2-0.2,0.4-0.3,0.6-0.4c0.2-0.1,0.5-0.1,0.7-0.1H17
			c0.3,0,0.5,0,0.7,0.1c0.2,0.1,0.4,0.2,0.6,0.4c0.2,0.2,0.3,0.4,0.4,0.6c0.1,0.2,0.1,0.5,0.1,0.7v7.6c0,0.3,0,0.5-0.1,0.7
			c-0.1,0.2-0.2,0.4-0.4,0.6c-0.2,0.2-0.4,0.3-0.6,0.4c-0.2,0.1-0.5,0.1-0.7,0.1h-0.9C15.8,13.3,15.6,13.3,15.4,13.2z"/>
		<polygon class="st0" points="27.3,5.8 32.6,15.1 32.7,15.5 32.7,15.2 33.9,15.2 33.9,0.2 31.8,0.2 31.8,9.6 26.5,0.2 25.1,0.2 
			25.1,15.2 27.3,15.2 		"/>
		<path class="st0" d="M41.2,0.2l-4.4,15H39l0.9-3.3h3.8l0.9,3.3h2.2l-4.4-15H41.2z M43.2,9.8h-2.7l1.3-4.7L43.2,9.8z"/>
		<polygon class="st0" points="51.3,15.2 53.4,15.2 53.4,2.2 56.8,2.2 56.8,0.2 47.9,0.2 47.9,2.2 51.3,2.2 		"/>
		<polygon class="st0" points="62.1,8.7 66.6,8.7 66.6,15.2 68.7,15.2 68.7,0.2 66.6,0.2 66.6,6.7 62.1,6.7 62.1,0.2 60,0.2 
			60,15.2 62.1,15.2 		"/>
		<path class="st0" d="M76,0.2l-4.4,15h2.2l0.9-3.3h3.8l0.9,3.3h2.2l-4.4-15H76z M78,9.8h-2.7l1.3-4.7L78,9.8z"/>
		<polygon class="st0" points="86.6,5.8 92,15.1 92,15.5 92,15.2 93.3,15.2 93.3,0.2 91.2,0.2 91.2,9.6 85.8,0.2 84.5,0.2 
			84.5,15.2 86.6,15.2 		"/>
		<polygon class="st0" points="17.5,18.7 15.4,18.7 15.4,33.7 22.9,33.7 22.9,31.6 17.5,31.6 		"/>
		<path class="st0" d="M28.9,18.7l-4.4,15h2.2l0.9-3.3h3.8l0.9,3.3h2.2l-4.4-15H28.9z M30.9,28.3h-2.7l1.3-4.7L30.9,28.3z"/>
		<polygon class="st0" points="37.5,33.7 39.6,33.7 39.6,27.2 45,27.2 45,25.2 39.6,25.2 39.6,20.7 46.3,20.7 46.3,18.7 37.5,18.7 
					"/>
		<polygon class="st0" points="51.4,18.7 49.3,18.7 49.3,33.7 56.8,33.7 56.8,31.6 51.4,31.6 		"/>
		<polygon class="st0" points="60,33.7 68.8,33.7 68.8,31.6 62.1,31.6 62.1,27.2 67.5,27.2 67.5,25.2 62.1,25.2 62.1,20.7 
			68.8,20.7 68.8,18.7 60,18.7 		"/>
		<path class="st0" d="M78.9,30c0,0.3,0,0.5-0.1,0.7c-0.1,0.2-0.2,0.4-0.4,0.6c-0.2,0.2-0.4,0.3-0.6,0.4c-0.2,0.1-0.5,0.1-0.7,0.1
			h-0.9c-0.3,0-0.5,0-0.7-0.1c-0.2-0.1-0.4-0.2-0.6-0.4c-0.2-0.2-0.3-0.4-0.4-0.6c-0.1-0.2-0.1-0.5-0.1-0.7V18.7h-2.1V30
			c0,0.5,0.1,1,0.3,1.5c0.2,0.5,0.5,0.9,0.8,1.2c0.4,0.4,0.8,0.6,1.2,0.8c0.5,0.2,1,0.3,1.5,0.3h1c0.5,0,1-0.1,1.5-0.3
			c0.5-0.2,0.9-0.5,1.2-0.8c0.4-0.4,0.6-0.8,0.8-1.2c0.2-0.5,0.3-1,0.3-1.5V18.7h-2.1V30z"/>
		<path class="st0" d="M90.6,27.6c0.3-0.1,0.5-0.1,0.8-0.2c0.5-0.2,0.9-0.5,1.2-0.8c0.4-0.4,0.6-0.8,0.8-1.2c0.2-0.5,0.3-1,0.3-1.5
			v-1.1c0-0.5-0.1-1-0.3-1.5c-0.2-0.5-0.5-0.9-0.8-1.2c-0.4-0.4-0.8-0.6-1.2-0.8c-0.5-0.2-1-0.3-1.5-0.3H85v15h2.1v-6h1.1l3.8,6h2.5
			L90.6,27.6z M87.1,20.7h2.7c0.3,0,0.5,0,0.7,0.1c0.2,0.1,0.4,0.2,0.6,0.4c0.2,0.2,0.3,0.4,0.4,0.6c0.1,0.2,0.1,0.5,0.1,0.7v1.1
			c0,0.3,0,0.5-0.1,0.7c-0.1,0.2-0.2,0.4-0.4,0.6c-0.2,0.2-0.4,0.3-0.6,0.4c-0.2,0.1-0.5,0.1-0.7,0.1h-2.7V20.7z"/>
	</g>
	<g>
		<path class="st0" d="M6.5,46.4H6.1L4.7,42l0-0.3l0,0.3l-1.4,4.4H2.9l-2-5.9h0.7L3.1,45l0,0.3l0-0.3l1.4-4.4h0.4L6.3,45l0,0.3
			l0-0.3l1.4-4.4h0.7L6.5,46.4z"/>
		<path class="st0" d="M15.6,45.5c-0.1,0.2-0.2,0.4-0.4,0.5c-0.2,0.2-0.3,0.3-0.6,0.4c-0.2,0.1-0.4,0.1-0.7,0.1h-0.5
			c-0.2,0-0.5,0-0.7-0.1c-0.2-0.1-0.4-0.2-0.5-0.4c-0.2-0.2-0.3-0.3-0.4-0.5c-0.1-0.2-0.1-0.4-0.1-0.7v-2.7c0-0.2,0-0.5,0.1-0.7
			c0.1-0.2,0.2-0.4,0.4-0.6c0.2-0.2,0.3-0.3,0.5-0.4c0.2-0.1,0.4-0.1,0.7-0.1H14c0.2,0,0.5,0,0.7,0.1c0.2,0.1,0.4,0.2,0.6,0.4
			c0.2,0.2,0.3,0.3,0.4,0.6c0.1,0.2,0.1,0.4,0.1,0.7v1.4h-3.2v1.3c0,0.1,0,0.3,0.1,0.4c0.1,0.1,0.1,0.2,0.2,0.3
			c0.1,0.1,0.2,0.2,0.3,0.2c0.1,0.1,0.3,0.1,0.4,0.1H14c0.1,0,0.3,0,0.4-0.1c0.1-0.1,0.2-0.1,0.3-0.2c0.1-0.1,0.2-0.2,0.2-0.3
			C15,45.1,15,45,15,44.8v-0.4l0.7,0.1v0.2C15.7,45,15.6,45.3,15.6,45.5z M15,42.1c0-0.1,0-0.3-0.1-0.4c-0.1-0.1-0.1-0.2-0.2-0.3
			c-0.1-0.1-0.2-0.2-0.3-0.2c-0.1-0.1-0.3-0.1-0.4-0.1h-0.5c-0.1,0-0.3,0-0.4,0.1c-0.1,0.1-0.2,0.1-0.3,0.2
			c-0.1,0.1-0.2,0.2-0.2,0.3c-0.1,0.1-0.1,0.3-0.1,0.4V43H15V42.1z"/>
		<path class="st0" d="M23.4,45.5c-0.1,0.2-0.2,0.4-0.4,0.5c-0.2,0.2-0.3,0.3-0.6,0.4c-0.2,0.1-0.4,0.1-0.7,0.1h-0.5
			c-0.2,0-0.5,0-0.7-0.1c-0.2-0.1-0.4-0.2-0.5-0.4c-0.2-0.2-0.3-0.3-0.4-0.5c-0.1-0.2-0.1-0.4-0.1-0.7v-6.6h0.7V41
			c0.2-0.2,0.4-0.3,0.6-0.4c0.2-0.1,0.5-0.2,0.7-0.2h0.2c0.2,0,0.5,0,0.7,0.1c0.2,0.1,0.4,0.2,0.6,0.4c0.2,0.2,0.3,0.3,0.4,0.6
			c0.1,0.2,0.1,0.4,0.1,0.7v2.7C23.5,45,23.5,45.3,23.4,45.5z M22.8,42.1c0-0.1,0-0.3-0.1-0.4c-0.1-0.1-0.1-0.2-0.2-0.3
			c-0.1-0.1-0.2-0.2-0.3-0.2c-0.1-0.1-0.3-0.1-0.4-0.1h-0.5c-0.1,0-0.3,0-0.4,0.1c-0.1,0.1-0.2,0.1-0.3,0.2
			c-0.1,0.1-0.2,0.2-0.2,0.3c-0.1,0.1-0.1,0.3-0.1,0.4v2.7c0,0.1,0,0.3,0.1,0.4c0.1,0.1,0.1,0.2,0.2,0.3c0.1,0.1,0.2,0.2,0.3,0.2
			c0.1,0.1,0.3,0.1,0.4,0.1h0.5c0.1,0,0.3,0,0.4-0.1c0.1-0.1,0.2-0.1,0.3-0.2c0.1-0.1,0.2-0.2,0.2-0.3c0.1-0.1,0.1-0.3,0.1-0.4V42.1
			z"/>
		<path class="st0" d="M36.3,46.4l-0.4-0.6c-0.2,0.2-0.4,0.4-0.6,0.5c-0.2,0.1-0.5,0.2-0.8,0.2h-0.2c-0.2,0-0.5,0-0.7-0.1
			c-0.2-0.1-0.4-0.2-0.6-0.4c-0.2-0.2-0.3-0.3-0.4-0.5c-0.1-0.2-0.1-0.4-0.1-0.7v-2.7c0-0.2,0-0.5,0.1-0.7c0.1-0.2,0.2-0.4,0.4-0.6
			c0.2-0.2,0.3-0.3,0.6-0.4c0.2-0.1,0.4-0.1,0.7-0.1h0.2c0.3,0,0.5,0.1,0.7,0.2c0.2,0.1,0.4,0.3,0.6,0.4v-2.8h0.7v8.2H36.3z
			 M35.8,42.1c0-0.1,0-0.3-0.1-0.4c-0.1-0.1-0.1-0.2-0.2-0.3c-0.1-0.1-0.2-0.2-0.3-0.2c-0.1-0.1-0.3-0.1-0.4-0.1h-0.5
			c-0.1,0-0.3,0-0.4,0.1c-0.1,0.1-0.2,0.1-0.3,0.2c-0.1,0.1-0.2,0.2-0.2,0.3c-0.1,0.1-0.1,0.3-0.1,0.4v2.7c0,0.1,0,0.3,0.1,0.4
			c0.1,0.1,0.1,0.2,0.2,0.3c0.1,0.1,0.2,0.2,0.3,0.2c0.1,0.1,0.3,0.1,0.4,0.1h0.5c0.1,0,0.3,0,0.4-0.1c0.1-0.1,0.2-0.1,0.3-0.2
			c0.1-0.1,0.2-0.2,0.2-0.3c0.1-0.1,0.1-0.3,0.1-0.4V42.1z"/>
		<path class="st0" d="M44.2,45.5c-0.1,0.2-0.2,0.4-0.4,0.5c-0.2,0.2-0.3,0.3-0.5,0.4c-0.2,0.1-0.4,0.1-0.7,0.1h-0.5
			c-0.2,0-0.5,0-0.7-0.1c-0.2-0.1-0.4-0.2-0.6-0.4c-0.2-0.2-0.3-0.3-0.4-0.5c-0.1-0.2-0.1-0.4-0.1-0.7v-2.7c0-0.2,0-0.5,0.1-0.7
			c0.1-0.2,0.2-0.4,0.4-0.6c0.2-0.2,0.3-0.3,0.6-0.4c0.2-0.1,0.4-0.1,0.7-0.1h0.5c0.2,0,0.5,0,0.7,0.1c0.2,0.1,0.4,0.2,0.5,0.4
			c0.2,0.2,0.3,0.3,0.4,0.6c0.1,0.2,0.1,0.4,0.1,0.7v1.4h-3.2v1.3c0,0.1,0,0.3,0.1,0.4c0.1,0.1,0.1,0.2,0.2,0.3
			c0.1,0.1,0.2,0.2,0.3,0.2c0.1,0.1,0.3,0.1,0.4,0.1h0.5c0.1,0,0.3,0,0.4-0.1c0.1-0.1,0.2-0.1,0.3-0.2c0.1-0.1,0.2-0.2,0.2-0.3
			c0.1-0.1,0.1-0.3,0.1-0.4v-0.4l0.7,0.1v0.2C44.3,45,44.3,45.3,44.2,45.5z M43.6,42.1c0-0.1,0-0.3-0.1-0.4
			c-0.1-0.1-0.1-0.2-0.2-0.3c-0.1-0.1-0.2-0.2-0.3-0.2c-0.1-0.1-0.3-0.1-0.4-0.1h-0.5c-0.1,0-0.3,0-0.4,0.1
			c-0.1,0.1-0.2,0.1-0.3,0.2c-0.1,0.1-0.2,0.2-0.2,0.3c-0.1,0.1-0.1,0.3-0.1,0.4V43h2.5V42.1z"/>
		<path class="st0" d="M50,46.4h-0.3l-2.1-5.9h0.7l1.5,4.5l0,0.3l0-0.3l1.5-4.5h0.7L50,46.4z"/>
		<path class="st0" d="M59.2,45.5c-0.1,0.2-0.2,0.4-0.4,0.5c-0.2,0.2-0.3,0.3-0.5,0.4c-0.2,0.1-0.4,0.1-0.7,0.1h-0.5
			c-0.2,0-0.5,0-0.7-0.1c-0.2-0.1-0.4-0.2-0.6-0.4c-0.2-0.2-0.3-0.3-0.4-0.5c-0.1-0.2-0.1-0.4-0.1-0.7v-2.7c0-0.2,0-0.5,0.1-0.7
			c0.1-0.2,0.2-0.4,0.4-0.6c0.2-0.2,0.3-0.3,0.6-0.4c0.2-0.1,0.4-0.1,0.7-0.1h0.5c0.2,0,0.5,0,0.7,0.1c0.2,0.1,0.4,0.2,0.5,0.4
			c0.2,0.2,0.3,0.3,0.4,0.6c0.1,0.2,0.1,0.4,0.1,0.7v1.4h-3.2v1.3c0,0.1,0,0.3,0.1,0.4c0.1,0.1,0.1,0.2,0.2,0.3
			c0.1,0.1,0.2,0.2,0.3,0.2c0.1,0.1,0.3,0.1,0.4,0.1h0.5c0.1,0,0.3,0,0.4-0.1c0.1-0.1,0.2-0.1,0.3-0.2c0.1-0.1,0.2-0.2,0.2-0.3
			c0.1-0.1,0.1-0.3,0.1-0.4v-0.4l0.7,0.1v0.2C59.4,45,59.3,45.3,59.2,45.5z M58.6,42.1c0-0.1,0-0.3-0.1-0.4
			c-0.1-0.1-0.1-0.2-0.2-0.3c-0.1-0.1-0.2-0.2-0.3-0.2c-0.1-0.1-0.3-0.1-0.4-0.1h-0.5c-0.1,0-0.3,0-0.4,0.1
			c-0.1,0.1-0.2,0.1-0.3,0.2c-0.1,0.1-0.2,0.2-0.2,0.3c-0.1,0.1-0.1,0.3-0.1,0.4V43h2.5V42.1z"/>
		<path class="st0" d="M63.5,46.4v-8.2h0.7v8.2H63.5z"/>
		<path class="st0" d="M72,45.5c-0.1,0.2-0.2,0.4-0.4,0.5c-0.2,0.2-0.3,0.3-0.6,0.4c-0.2,0.1-0.4,0.1-0.7,0.1h-0.5
			c-0.2,0-0.5,0-0.7-0.1c-0.2-0.1-0.4-0.2-0.5-0.4c-0.2-0.2-0.3-0.3-0.4-0.5c-0.1-0.2-0.1-0.4-0.1-0.7v-2.7c0-0.2,0-0.5,0.1-0.7
			c0.1-0.2,0.2-0.4,0.4-0.6c0.2-0.2,0.3-0.3,0.5-0.4c0.2-0.1,0.4-0.1,0.7-0.1h0.5c0.2,0,0.5,0,0.7,0.1c0.2,0.1,0.4,0.2,0.6,0.4
			c0.2,0.2,0.3,0.3,0.4,0.6c0.1,0.2,0.1,0.4,0.1,0.7v2.7C72.1,45,72.1,45.3,72,45.5z M71.4,42.1c0-0.1,0-0.3-0.1-0.4
			c-0.1-0.1-0.1-0.2-0.2-0.3c-0.1-0.1-0.2-0.2-0.3-0.2c-0.1-0.1-0.3-0.1-0.4-0.1h-0.5c-0.1,0-0.3,0-0.4,0.1
			c-0.1,0.1-0.2,0.1-0.3,0.2c-0.1,0.1-0.2,0.2-0.2,0.3c-0.1,0.1-0.1,0.3-0.1,0.4v2.7c0,0.1,0,0.3,0.1,0.4c0.1,0.1,0.1,0.2,0.2,0.3
			c0.1,0.1,0.2,0.2,0.3,0.2c0.1,0.1,0.3,0.1,0.4,0.1h0.5c0.1,0,0.3,0,0.4-0.1c0.1-0.1,0.2-0.1,0.3-0.2c0.1-0.1,0.2-0.2,0.2-0.3
			c0.1-0.1,0.1-0.3,0.1-0.4V42.1z"/>
		<path class="st0" d="M79.8,45.5c-0.1,0.2-0.2,0.4-0.4,0.5c-0.2,0.2-0.3,0.3-0.5,0.4c-0.2,0.1-0.4,0.1-0.7,0.1H78
			c-0.3,0-0.5-0.1-0.7-0.2c-0.2-0.1-0.4-0.3-0.6-0.4v2.8H76v-8.2h0.2l0.4,0.6c0.2-0.2,0.4-0.4,0.6-0.5c0.2-0.1,0.5-0.2,0.8-0.2h0.2
			c0.2,0,0.5,0,0.7,0.1c0.2,0.1,0.4,0.2,0.5,0.4c0.2,0.2,0.3,0.3,0.4,0.6c0.1,0.2,0.1,0.4,0.1,0.7v2.7C79.9,45,79.9,45.3,79.8,45.5z
			 M79.2,42.1c0-0.1,0-0.3-0.1-0.4c-0.1-0.1-0.1-0.2-0.2-0.3c-0.1-0.1-0.2-0.2-0.3-0.2c-0.1-0.1-0.3-0.1-0.4-0.1h-0.5
			c-0.1,0-0.3,0-0.4,0.1c-0.1,0.1-0.2,0.1-0.3,0.2c-0.1,0.1-0.2,0.2-0.2,0.3c-0.1,0.1-0.1,0.3-0.1,0.4v2.7c0,0.1,0,0.3,0.1,0.4
			c0.1,0.1,0.1,0.2,0.2,0.3c0.1,0.1,0.2,0.2,0.3,0.2c0.1,0.1,0.3,0.1,0.4,0.1h0.5c0.1,0,0.3,0,0.4-0.1c0.1-0.1,0.2-0.1,0.3-0.2
			c0.1-0.1,0.2-0.2,0.2-0.3c0.1-0.1,0.1-0.3,0.1-0.4V42.1z"/>
		<path class="st0" d="M87.6,45.5c-0.1,0.2-0.2,0.4-0.4,0.5c-0.2,0.2-0.3,0.3-0.6,0.4c-0.2,0.1-0.4,0.1-0.7,0.1h-0.5
			c-0.2,0-0.5,0-0.7-0.1c-0.2-0.1-0.4-0.2-0.6-0.4c-0.2-0.2-0.3-0.3-0.4-0.5c-0.1-0.2-0.1-0.4-0.1-0.7v-2.7c0-0.2,0-0.5,0.1-0.7
			c0.1-0.2,0.2-0.4,0.4-0.6c0.2-0.2,0.3-0.3,0.6-0.4c0.2-0.1,0.4-0.1,0.7-0.1H86c0.2,0,0.5,0,0.7,0.1c0.2,0.1,0.4,0.2,0.6,0.4
			c0.2,0.2,0.3,0.3,0.4,0.6c0.1,0.2,0.1,0.4,0.1,0.7v1.4h-3.2v1.3c0,0.1,0,0.3,0.1,0.4c0.1,0.1,0.1,0.2,0.2,0.3
			c0.1,0.1,0.2,0.2,0.3,0.2c0.1,0.1,0.3,0.1,0.4,0.1H86c0.1,0,0.3,0,0.4-0.1c0.1-0.1,0.2-0.1,0.3-0.2c0.1-0.1,0.2-0.2,0.2-0.3
			C87,45.1,87,45,87,44.8v-0.4l0.7,0.1v0.2C87.8,45,87.7,45.3,87.6,45.5z M87,42.1c0-0.1,0-0.3-0.1-0.4c-0.1-0.1-0.1-0.2-0.2-0.3
			c-0.1-0.1-0.2-0.2-0.3-0.2c-0.1-0.1-0.3-0.1-0.4-0.1h-0.5c-0.1,0-0.3,0-0.4,0.1c-0.1,0.1-0.2,0.1-0.3,0.2
			c-0.1,0.1-0.2,0.2-0.2,0.3c-0.1,0.1-0.1,0.3-0.1,0.4V43H87V42.1z"/>
		<path class="st0" d="M93.4,41.2c-0.1,0-0.3,0-0.4,0.1c-0.1,0.1-0.2,0.1-0.3,0.2c-0.1,0.1-0.2,0.2-0.2,0.3
			c-0.1,0.1-0.1,0.3-0.1,0.4v4.2h-0.7v-5.9h0.2l0.4,0.6c0.2-0.2,0.4-0.4,0.6-0.5c0.2-0.1,0.5-0.2,0.8-0.2h0.4v0.8H93.4z"/>
	</g>
	<polygon class="st0" points="12.2,18.6 12.3,18.6 10.3,18.6 10.2,18.6 8.7,20.9 0,33.6 1.6,33.6 2,33.6 2.1,33.6 3.5,31.3 	"/>
</g>
</svg>
